<mxfile host="app.diagrams.net" modified="2022-12-10T12:36:25.644Z" agent="5.0 (Windows NT 10.0; Win64; x64) AppleWebKit/537.36 (KHTML, like Gecko) Chrome/108.0.0.0 Safari/537.36" version="20.6.1" etag="ojI6cI5W0WvJVJ9x2z6x" type="github">
  <diagram id="ZDTxZjT3eYlvm-lE_M7x" name="Страница 1">
    <mxGraphModel dx="1422" dy="786" grid="1" gridSize="10" guides="1" tooltips="1" connect="1" arrows="1" fold="1" page="1" pageScale="1" pageWidth="827" pageHeight="1169" math="0" shadow="0">
      <root>
        <mxCell id="0" />
        <mxCell id="1" parent="0" />
        <mxCell id="8goDtpoeOGVCgNMcQSoN-1" value="&lt;p style=&quot;line-height: 120%;&quot;&gt;&lt;br&gt;&lt;/p&gt;" style="rounded=0;whiteSpace=wrap;html=1;align=left;" vertex="1" parent="1">
          <mxGeometry x="570" y="90" width="180" height="340" as="geometry" />
        </mxCell>
        <mxCell id="8goDtpoeOGVCgNMcQSoN-2" value="&lt;p&gt;&lt;font style=&quot;font-size: 12px; font-weight: normal;&quot;&gt;Deployment&lt;/font&gt;&lt;/p&gt;" style="text;strokeColor=none;fillColor=none;html=1;fontSize=24;fontStyle=1;verticalAlign=middle;align=center;" vertex="1" parent="1">
          <mxGeometry x="605" y="390" width="100" height="40" as="geometry" />
        </mxCell>
        <mxCell id="8goDtpoeOGVCgNMcQSoN-3" value="" style="rounded=0;whiteSpace=wrap;html=1;fontSize=12;" vertex="1" parent="1">
          <mxGeometry x="590" y="170" width="130" height="230" as="geometry" />
        </mxCell>
        <mxCell id="8goDtpoeOGVCgNMcQSoN-4" value="&lt;span style=&quot;font-weight: normal;&quot;&gt;&lt;font style=&quot;font-size: 12px;&quot;&gt;Replica set&lt;/font&gt;&lt;/span&gt;" style="text;strokeColor=none;fillColor=none;html=1;fontSize=24;fontStyle=1;verticalAlign=middle;align=center;" vertex="1" parent="1">
          <mxGeometry x="605" y="360" width="100" height="40" as="geometry" />
        </mxCell>
        <mxCell id="8goDtpoeOGVCgNMcQSoN-5" value="Pod" style="rounded=0;whiteSpace=wrap;html=1;fontSize=12;" vertex="1" parent="1">
          <mxGeometry x="595" y="200" width="120" height="60" as="geometry" />
        </mxCell>
        <mxCell id="8goDtpoeOGVCgNMcQSoN-6" value="Pod" style="rounded=0;whiteSpace=wrap;html=1;fontSize=12;" vertex="1" parent="1">
          <mxGeometry x="595" y="280" width="120" height="60" as="geometry" />
        </mxCell>
        <mxCell id="8goDtpoeOGVCgNMcQSoN-7" value="Expose Service" style="rounded=0;whiteSpace=wrap;html=1;fontSize=12;" vertex="1" parent="1">
          <mxGeometry x="420" y="250" width="120" height="60" as="geometry" />
        </mxCell>
        <mxCell id="8goDtpoeOGVCgNMcQSoN-8" value="" style="endArrow=classic;html=1;rounded=0;fontSize=12;exitX=1;exitY=0.5;exitDx=0;exitDy=0;" edge="1" parent="1" source="8goDtpoeOGVCgNMcQSoN-7">
          <mxGeometry width="50" height="50" relative="1" as="geometry">
            <mxPoint x="490" y="370" as="sourcePoint" />
            <mxPoint x="570" y="280" as="targetPoint" />
          </mxGeometry>
        </mxCell>
        <mxCell id="8goDtpoeOGVCgNMcQSoN-9" value="Ingress" style="rounded=0;whiteSpace=wrap;html=1;fontSize=12;" vertex="1" parent="1">
          <mxGeometry x="260" y="250" width="120" height="60" as="geometry" />
        </mxCell>
        <mxCell id="8goDtpoeOGVCgNMcQSoN-10" value="" style="endArrow=classic;html=1;rounded=0;fontSize=12;exitX=1;exitY=0.5;exitDx=0;exitDy=0;entryX=0;entryY=0.5;entryDx=0;entryDy=0;" edge="1" parent="1" source="8goDtpoeOGVCgNMcQSoN-9" target="8goDtpoeOGVCgNMcQSoN-7">
          <mxGeometry width="50" height="50" relative="1" as="geometry">
            <mxPoint x="490" y="360" as="sourcePoint" />
            <mxPoint x="540" y="310" as="targetPoint" />
          </mxGeometry>
        </mxCell>
        <mxCell id="8goDtpoeOGVCgNMcQSoN-11" value="PC" style="rounded=0;whiteSpace=wrap;html=1;fontSize=12;" vertex="1" parent="1">
          <mxGeometry x="100" y="250" width="120" height="60" as="geometry" />
        </mxCell>
        <mxCell id="8goDtpoeOGVCgNMcQSoN-12" value="" style="endArrow=classic;html=1;rounded=0;fontSize=12;exitX=1;exitY=0.5;exitDx=0;exitDy=0;" edge="1" parent="1" source="8goDtpoeOGVCgNMcQSoN-11">
          <mxGeometry width="50" height="50" relative="1" as="geometry">
            <mxPoint x="490" y="360" as="sourcePoint" />
            <mxPoint x="260" y="280" as="targetPoint" />
          </mxGeometry>
        </mxCell>
        <mxCell id="8goDtpoeOGVCgNMcQSoN-16" style="edgeStyle=orthogonalEdgeStyle;rounded=0;orthogonalLoop=1;jettySize=auto;html=1;exitX=1;exitY=0.5;exitDx=0;exitDy=0;entryX=1;entryY=0.5;entryDx=0;entryDy=0;" edge="1" parent="1" source="8goDtpoeOGVCgNMcQSoN-15" target="8goDtpoeOGVCgNMcQSoN-5">
          <mxGeometry relative="1" as="geometry" />
        </mxCell>
        <mxCell id="8goDtpoeOGVCgNMcQSoN-17" style="edgeStyle=orthogonalEdgeStyle;rounded=0;orthogonalLoop=1;jettySize=auto;html=1;exitX=1;exitY=0.5;exitDx=0;exitDy=0;entryX=1;entryY=0.5;entryDx=0;entryDy=0;" edge="1" parent="1" source="8goDtpoeOGVCgNMcQSoN-15" target="8goDtpoeOGVCgNMcQSoN-6">
          <mxGeometry relative="1" as="geometry" />
        </mxCell>
        <mxCell id="8goDtpoeOGVCgNMcQSoN-15" value="Config Map" style="rounded=0;whiteSpace=wrap;html=1;" vertex="1" parent="1">
          <mxGeometry x="595" y="100" width="120" height="60" as="geometry" />
        </mxCell>
      </root>
    </mxGraphModel>
  </diagram>
</mxfile>
